<svg id="SvgjsSvg1373" width="64" height="61" xmlns="http://www.w3.org/2000/svg" version="1.1" xmlns:xlink="http://www.w3.org/1999/xlink" xmlns:svgjs="http://svgjs.com/svgjs" viewBox="746 2683 64 61"><defs id="SvgjsDefs1374"></defs><svg id="SvgjsSvg1375" width="64" height="61" xmlns="http://www.w3.org/2000/svg" version="1.1" xmlns:xlink="http://www.w3.org/1999/xlink" xmlns:svgjs="http://svgjs.com/svgjs" viewBox="0 0.0238037109375 64 60.95233154296875" fill="#ffffff" opacity="1" x="746" y="2683"><defs id="SvgjsDefs1376"></defs><svg version="1.1" xmlns="http://www.w3.org/2000/svg" xmlns:xlink="http://www.w3.org/1999/xlink" width="64" height="61" viewBox="0.999969 0.0000767112 63 60"><g><path fill="#ffffff" stroke="none" paint-order="stroke fill markers" fill-rule="evenodd" d=" M 0.999969482421875 0.00007671117782592773 C 0.999969482421875 0.00007671117782592773 60.999969482421875 0.00007671117782592773 60.999969482421875 0.00007671117782592773 C 62.65684509277344 0.00007671117782592773 64 1.3431755900382996 64 2.999978482723236 C 64 2.999978482723236 64 56.99992460012436 64 56.99992460012436 C 64 58.65694177150726 62.65684509277344 60.00004065036774 60.999969482421875 60.00004065036774 C 60.999969482421875 60.00004065036774 0.999969482421875 60.00004065036774 0.999969482421875 60.00004065036774 C 0.999969482421875 60.00004065036774 0.999969482421875 0.00007671117782592773 0.999969482421875 0.00007671117782592773 Z"></path></g></svg></svg><svg id="SvgjsSvg1379" width="21" height="18" xmlns="http://www.w3.org/2000/svg" version="1.1" xmlns:xlink="http://www.w3.org/1999/xlink" xmlns:svgjs="http://svgjs.com/svgjs" viewBox="0 0.60125732421875 20.99993896484375 16.79754638671875" fill="#16a085" opacity="1" x="769" y="2706"><defs id="SvgjsDefs1380"></defs><svg version="1.1" xmlns="http://www.w3.org/2000/svg" xmlns:xlink="http://www.w3.org/1999/xlink" width="21" height="18" viewBox="0.995346 0.999505 20.0037 16.0006"><g><path fill="#16a085" stroke="none" paint-order="stroke fill markers" fill-rule="evenodd" d=" M 20.999008178710938 4.124117136001587 C 20.999008178710938 3.7874853014945984 20.8699951171875 3.4506391882896423 20.637680053710938 3.2082899808883667 C 20.637680053710938 3.2082899808883667 18.882537841796875 1.3766356706619263 18.882537841796875 1.3766356706619263 C 18.650222778320312 1.134072184562683 18.32757568359375 0.9995051622390747 18.004928588867188 0.9995051622390747 C 17.682281494140625 0.9995051622390747 17.359634399414062 1.134072184562683 17.1273193359375 1.3766356706619263 C 17.1273193359375 1.3766356706619263 8.661285400390625 10.225488781929016 8.661285400390625 10.225488781929016 C 8.661285400390625 10.225488781929016 4.867034912109375 6.25211888551712 4.867034912109375 6.25211888551712 C 4.6347198486328125 6.009769678115845 4.31207275390625 5.874988377094269 3.9894256591796875 5.874988377094269 C 3.666778564453125 5.874988377094269 3.3441314697265625 6.009769678115845 3.11181640625 6.25211888551712 C 3.11181640625 6.25211888551712 1.3566741943359375 8.083987474441528 1.3566741943359375 8.083987474441528 C 1.124359130859375 8.326336681842804 0.9953460693359375 8.662968516349792 0.9953460693359375 8.999814629554749 C 0.9953460693359375 9.336446464061737 1.124359130859375 9.673078298568726 1.3566741943359375 9.915641784667969 C 1.3566741943359375 9.915641784667969 6.028533935546875 14.791124999523163 6.028533935546875 14.791124999523163 C 6.028533935546875 14.791124999523163 7.7836761474609375 16.62299358844757 7.7836761474609375 16.62299358844757 C 8.0159912109375 16.865342795848846 8.338638305664062 17.000124096870422 8.661285400390625 17.000124096870422 C 8.983932495117188 17.000124096870422 9.306503295898438 16.865342795848846 9.538818359375 16.62299358844757 C 9.538818359375 16.62299358844757 11.294036865234375 14.791124999523163 11.294036865234375 14.791124999523163 C 11.294036865234375 14.791124999523163 20.637680053710938 5.039944291114807 20.637680053710938 5.039944291114807 C 20.8699951171875 4.7975950837135315 20.999008178710938 4.460963249206543 20.999008178710938 4.124117136001587 Z"></path></g></svg></svg></svg>